<?xml version="1.0" encoding="UTF-8"?>
<svg xmlns="http://www.w3.org/2000/svg" version="1.1" xmlns:xodm="http://www.corel.com/coreldraw/odm/2003" viewBox="0 0 1920 1080">
  <!-- Generator: Adobe Illustrator 30.1.0, SVG Export Plug-In . SVG Version: 2.1.1 Build 136)  -->
  <defs>
    <style>
      .st0 {
        fill: #dfe5ff;
      }

      .st1 {
        fill: #c0cbf6;
      }

      .st2 {
        fill: #8197ee;
      }

      .st3 {
        fill: #627eea;
      }
    </style>
  </defs>
  <g id="Capa_1" image-rendering="optimizeQuality" shape-rendering="geometricPrecision" text-rendering="geometricPrecision">
    <circle class="st3" cx="960" cy="540" r="499.3"/>
    <g id="Layer_x5F_1">
      <g id="_1421394342400">
        <g>
          <polygon class="st1" points="959.92 87.42 953.85 108.05 953.85 706.55 959.92 712.61 1237.73 548.39 959.92 87.42"/>
          <polygon class="st0" points="959.92 87.42 682.1 548.39 959.92 712.61 959.92 422.11 959.92 87.42"/>
          <polygon class="st1" points="959.92 765.21 956.5 769.38 956.5 982.58 959.92 992.57 1237.9 601.08 959.92 765.21"/>
          <polygon class="st0" points="959.92 992.57 959.92 765.21 682.1 601.08 959.92 992.57"/>
          <polygon class="st2" points="959.92 712.61 1237.73 548.39 959.92 422.11 959.92 712.61"/>
          <polygon class="st1" points="682.1 548.39 959.92 712.61 959.92 422.11 682.1 548.39"/>
        </g>
      </g>
    </g>
  </g>
</svg>