<?xml version="1.0" encoding="UTF-8"?>
<svg id="Layer_1" xmlns="http://www.w3.org/2000/svg" version="1.1" viewBox="0 0 1448 1448">
  <!-- Generator: Adobe Illustrator 30.1.0, SVG Export Plug-In . SVG Version: 2.1.1 Build 136)  -->
  <defs>
    <style>
      .st0 {
        fill: #163588;
      }

      .st1 {
        fill: #fff;
      }
    </style>
  </defs>
  <circle class="st0" cx="724" cy="724" r="721.5"/>
  <g>
    <path class="st1" d="M558.4,713.19c0,47.11-4.07,84.75-12.2,112.92-8.13,28.17-21.71,48.91-40.74,62.24-19.03,13.33-45.23,19.99-78.59,19.99h-123.23v-368.68h117.95c34.03,0,61.07,6.71,81.1,20.12,20.03,13.42,34.33,32.78,42.88,58.09,8.55,25.32,12.83,57.09,12.83,95.31ZM373.56,850.25h38.23c22.8,0,39.52-5.28,50.17-15.84,10.65-10.56,17.27-24.27,19.87-41.12,2.6-16.85,3.9-40.03,3.9-69.54,0-35.88-2.43-62.7-7.29-80.48-4.87-17.77-12.79-29.8-23.77-36.09-10.98-6.29-26.95-9.43-47.91-9.43h-33.2v252.49Z"/>
    <path class="st1" d="M664.27,835.41l-17.35,72.93h-72.43l105.62-368.68h75.95l104.62,368.68h-72.68l-17.1-72.93h-106.63ZM718.09,608.07l-39.48,166.99h78.46l-38.98-166.99Z"/>
    <path class="st1" d="M1144.36,908.34h-78.21l-52.31-102.86c-2.18-4.19-5.62-11.57-10.31-22.13-4.86,10.4-8.3,17.52-10.31,21.38l-53.06,103.61h-81.48l102.61-192.39-92.55-176.29h79.47l43,92.8c5.7,12.24,9.81,21.63,12.32,28.17,2.18-5.7,6.29-15.17,12.32-28.42l43-92.55h77.96l-92.8,176.29,100.34,192.39Z"/>
  </g>
</svg>