<?xml version="1.0" encoding="UTF-8"?>
<svg id="Layer_1" xmlns="http://www.w3.org/2000/svg" version="1.1" viewBox="0 0 1448 1448">
  <!-- Generator: Adobe Illustrator 30.1.0, SVG Export Plug-In . SVG Version: 2.1.1 Build 136)  -->
  <defs>
    <style>
      .st0 {
        fill: #fc0;
      }

      .st1 {
        fill: #00309c;
      }

      .st2 {
        fill: #fff;
      }

      .st3 {
        fill: #cb001c;
      }

      .st4 {
        isolation: isolate;
        opacity: .3;
      }

      .st5 {
        fill: #f4f4f4;
      }

      .st6 {
        fill: #2a3560;
      }
    </style>
  </defs>
  <g>
    <g>
      <path class="st3" d="M860.71,115.79c-67.72-52.84-148.46-89.46-236.73-104.48v104.48h236.73Z"/>
      <path class="st5" d="M623.97,235.45h349.54c-31.12-45.59-69.37-85.77-112.81-119.66h-236.73v119.66Z"/>
      <path class="st3" d="M623.97,355.11h410.07c-15.31-42.6-35.44-82.89-60.53-119.66h-349.54v119.66Z"/>
      <path class="st5" d="M623.97,474.77h438.24c-4.67-41.59-14.46-81.54-28.17-119.66h-410.07v119.66Z"/>
      <path class="st3" d="M623.97,594.43h438.24c2.21-19.66,3.58-39.58,3.58-59.84s-1.38-40.17-3.58-59.83h-438.24v119.67Z"/>
      <path class="st5" d="M1062.21,594.43H6.54c4.67,41.59,14.46,81.54,28.17,119.66h999.34c13.7-38.12,23.5-78.07,28.17-119.66Z"/>
      <path class="st3" d="M1034.04,714.09H34.71c15.31,42.6,35.44,82.89,60.53,119.66h878.27c25.1-36.77,45.22-77.06,60.53-119.66Z"/>
      <path class="st3" d="M860.71,953.42H208.05c90.11,70.31,203.17,112.6,326.33,112.6,123.15,0,236.21-42.28,326.33-112.6Z"/>
      <path class="st5" d="M973.51,833.76H95.24c31.12,45.59,69.37,85.77,112.81,119.66h652.66c43.43-33.9,81.69-74.07,112.81-119.66Z"/>
      <path class="st6" d="M623.97,474.77V11.31c-29.19-4.97-58.99-8.12-89.6-8.12-202.66,0-378.72,113.5-468.35,280.34l25.91-3.76,14.76-29.91,14.76,29.91,33,4.8-23.88,23.28,5.64,32.88-29.52-15.52-29.52,15.52,5.64-32.88-19.39-18.9C24.99,362.45,2.96,445.9,2.96,534.6c0,20.26,1.38,40.17,3.58,59.84h617.43v-119.66h0ZM136.22,530.88l-29.52-15.52-29.52,15.52,5.64-32.87-23.88-23.28,33.01-4.8,14.76-29.91,14.76,29.91,33,4.8-23.88,23.28,5.64,32.87ZM236.89,435.79l-29.52-15.52-29.52,15.52,5.64-32.87-23.88-23.28,33.01-4.8,14.76-29.91,14.76,29.91,33.01,4.8-23.88,23.28,5.64,32.87ZM231.25,218.21l5.64,32.87-29.52-15.52-29.52,15.52,5.64-32.87-23.88-23.28,33.01-4.79,14.76-29.91,14.76,29.91,33.01,4.79-23.88,23.28ZM332.97,530.88l-29.52-15.52-29.52,15.52,5.64-32.87-23.88-23.28,33-4.8,14.76-29.91,14.76,29.91,33,4.8-23.88,23.28,5.64,32.87ZM327.33,307.83l5.64,32.88-29.52-15.52-29.52,15.52,5.64-32.88-23.88-23.28,33-4.8,14.76-29.91,14.76,29.91,33,4.8-23.88,23.28ZM327.33,117.66l5.64,32.87-29.52-15.52-29.52,15.52,5.64-32.87-23.88-23.28,33-4.8,14.76-29.91,14.76,29.91,33,4.8-23.88,23.28ZM430.54,435.79l-29.52-15.52-29.52,15.52,5.64-32.87-23.88-23.28,33-4.8,14.76-29.91,14.76,29.91,33.01,4.8-23.88,23.28,5.64,32.87ZM424.91,218.21l5.64,32.87-29.52-15.52-29.52,15.52,5.64-32.87-23.88-23.28,33-4.79,14.76-29.91,14.76,29.91,33.01,4.79-23.88,23.28ZM529.73,530.88l-29.52-15.52-29.52,15.52,5.64-32.87-23.88-23.28,33-4.8,14.76-29.91,14.76,29.91,33.01,4.8-23.88,23.28,5.64,32.87ZM524.09,307.83l5.64,32.88-29.52-15.52-29.52,15.52,5.64-32.88-23.88-23.28,33-4.8,14.76-29.91,14.76,29.91,33.01,4.8-23.88,23.28ZM524.09,117.66l5.64,32.87-29.52-15.52-29.52,15.52,5.64-32.87-23.88-23.28,33-4.8,14.76-29.91,14.76,29.91,33.01,4.8-23.88,23.28Z"/>
      <polygon class="st2" points="303.45 59.67 288.69 89.58 255.69 94.38 279.57 117.66 273.93 150.53 303.45 135.01 332.97 150.53 327.33 117.66 351.22 94.38 318.21 89.58 303.45 59.67"/>
      <polygon class="st2" points="500.21 59.67 485.45 89.58 452.44 94.38 476.32 117.66 470.69 150.53 500.21 135.01 529.73 150.53 524.09 117.66 547.97 94.38 514.97 89.58 500.21 59.67"/>
      <path class="st2" d="M77.17,340.71l29.52-15.52,29.52,15.52-5.64-32.88,23.88-23.28-33-4.8-14.76-29.91-14.76,29.91-25.91,3.76c-.94,1.76-1.68,3.64-2.61,5.41l19.39,18.9-5.64,32.88Z"/>
      <polygon class="st2" points="303.45 249.85 288.69 279.76 255.69 284.55 279.57 307.83 273.93 340.71 303.45 325.19 332.97 340.71 327.33 307.83 351.22 284.55 318.21 279.76 303.45 249.85"/>
      <polygon class="st2" points="500.21 249.85 485.45 279.76 452.44 284.55 476.32 307.83 470.69 340.71 500.21 325.19 529.73 340.71 524.09 307.83 547.97 284.55 514.97 279.76 500.21 249.85"/>
      <polygon class="st2" points="121.46 469.93 106.69 440.03 91.94 469.93 58.93 474.73 82.81 498.01 77.17 530.88 106.69 515.36 136.22 530.88 130.58 498.01 154.46 474.73 121.46 469.93"/>
      <polygon class="st2" points="318.21 469.93 303.45 440.03 288.69 469.93 255.69 474.73 279.57 498.01 273.93 530.88 303.45 515.36 332.97 530.88 327.33 498.01 351.22 474.73 318.21 469.93"/>
      <polygon class="st2" points="514.97 469.93 500.21 440.03 485.45 469.93 452.44 474.73 476.32 498.01 470.69 530.88 500.21 515.36 529.73 530.88 524.09 498.01 547.97 474.73 514.97 469.93"/>
      <polygon class="st2" points="207.37 160.22 192.61 190.13 159.6 194.93 183.49 218.21 177.85 251.08 207.37 235.56 236.89 251.08 231.25 218.21 255.14 194.93 222.13 190.13 207.37 160.22"/>
      <polygon class="st2" points="401.02 160.22 386.26 190.13 353.26 194.93 377.14 218.21 371.5 251.08 401.02 235.56 430.54 251.08 424.91 218.21 448.79 194.93 415.78 190.13 401.02 160.22"/>
      <polygon class="st2" points="222.13 374.85 207.37 344.94 192.61 374.85 159.6 379.64 183.49 402.92 177.85 435.79 207.37 420.27 236.89 435.79 231.25 402.92 255.14 379.64 222.13 374.85"/>
      <polygon class="st2" points="415.78 374.85 401.02 344.94 386.26 374.85 353.26 379.64 377.14 402.92 371.5 435.79 401.02 420.27 430.54 435.79 424.91 402.92 448.79 379.64 415.78 374.85"/>
    </g>
    <path class="st4" d="M385.58,1075.29c15.31,42.6,35.44,82.89,60.53,119.66,31.12,45.59,69.37,85.77,112.81,119.66,90.11,70.31,203.17,112.6,326.33,112.6s236.21-42.29,326.33-112.6c43.43-33.9,81.69-74.07,112.81-119.66,25.1-36.77,45.22-77.06,60.53-119.66,13.7-38.12,23.5-78.07,28.17-119.66,2.21-19.66,3.58-39.58,3.58-59.84s-1.38-40.17-3.58-59.83c-4.67-41.59-14.46-81.54-28.17-119.66-15.31-42.6-35.44-82.89-60.53-119.66-31.12-45.59-69.37-85.77-112.81-119.66-67.72-52.84-148.46-89.46-236.73-104.48-29.19-4.97-58.99-8.12-89.6-8.12-202.66,0-378.72,113.5-468.35,280.34-.94,1.76-1.68,3.64-2.61,5.41-38.43,73.51-60.46,156.97-60.46,245.67,0,20.26,1.38,40.17,3.58,59.84,4.67,41.59,14.46,81.54,28.17,119.66Z"/>
  </g>
  <g>
    <circle class="st1" cx="920.35" cy="920.92" r="530.55"/>
    <g>
      <polygon class="st0" points="920.35 529.13 933.95 565.58 972.04 566.67 941.57 589.53 951.91 627.62 920.35 604.22 888.24 627.62 898.58 589.53 868.66 566.67 906.2 565.58 920.35 529.13"/>
      <polygon class="st0" points="920.35 1214.22 933.95 1251.22 972.04 1251.76 941.57 1275.16 951.91 1312.71 920.35 1289.31 888.24 1312.71 898.58 1275.16 868.66 1251.76 906.2 1251.22 920.35 1214.22"/>
      <polygon class="st0" points="749.49 1167.96 763.63 1204.96 801.18 1205.51 771.25 1228.91 781.59 1266.45 749.49 1243.06 717.92 1266.45 728.26 1228.91 697.79 1205.51 735.88 1204.96 749.49 1167.96"/>
      <polygon class="st0" points="623.79 1042.81 637.93 1079.27 675.48 1080.35 645.55 1103.21 655.89 1141.3 623.79 1117.9 592.23 1141.3 602.56 1103.21 572.09 1080.35 610.18 1079.27 623.79 1042.81"/>
      <polygon class="st0" points="576.99 873.03 590.59 909.49 628.68 910.58 598.76 933.43 609.09 970.98 576.99 947.58 544.88 970.98 555.22 933.43 525.29 910.58 563.39 909.49 576.99 873.03"/>
      <polygon class="st0" points="623.79 699.99 637.93 736.99 675.48 737.54 645.55 760.94 655.89 798.48 623.79 775.08 592.23 798.48 602.56 760.94 572.09 737.54 610.18 736.99 623.79 699.99"/>
      <polygon class="st0" points="747.85 574.29 761.46 610.75 799.55 611.84 769.62 634.69 779.96 672.78 747.85 649.38 715.75 672.78 726.09 634.69 696.16 611.84 734.25 610.75 747.85 574.29"/>
      <polygon class="st0" points="1090.67 1167.96 1077.07 1204.96 1038.98 1205.51 1069.45 1228.91 1059.11 1266.45 1090.67 1243.06 1122.78 1266.45 1112.44 1228.91 1142.36 1205.51 1104.82 1204.96 1090.67 1167.96"/>
      <polygon class="st0" points="1216.37 1042.81 1202.77 1079.27 1165.22 1080.35 1195.15 1103.21 1184.81 1141.3 1216.37 1117.9 1248.47 1141.3 1238.14 1103.21 1268.06 1080.35 1230.52 1079.27 1216.37 1042.81"/>
      <polygon class="st0" points="1263.71 873.03 1249.56 909.49 1212.02 910.58 1241.94 933.43 1231.61 970.98 1263.71 947.58 1295.27 970.98 1284.93 933.43 1315.41 910.58 1277.31 909.49 1263.71 873.03"/>
      <polygon class="st0" points="1216.37 699.99 1202.77 736.99 1165.22 737.54 1195.15 760.94 1184.81 798.48 1216.37 775.08 1248.47 798.48 1238.14 760.94 1268.06 737.54 1230.52 736.99 1216.37 699.99"/>
      <polygon class="st0" points="1092.85 574.29 1078.7 610.75 1041.15 611.84 1071.08 634.69 1060.74 672.78 1092.85 649.38 1124.41 672.78 1114.07 634.69 1144.54 611.84 1106.45 610.75 1092.85 574.29"/>
    </g>
  </g>
</svg>