<?xml version="1.0" encoding="UTF-8"?>
<svg id="Layer_1" xmlns="http://www.w3.org/2000/svg" version="1.1" viewBox="0 0 1448 1448">
  <!-- Generator: Adobe Illustrator 30.1.0, SVG Export Plug-In . SVG Version: 2.1.1 Build 136)  -->
  <defs>
    <style>
      .st0 {
        fill: #fff;
      }

      .st1 {
        fill: #cb001c;
      }

      .st2 {
        isolation: isolate;
        opacity: .3;
      }

      .st3 {
        fill: #f4f4f4;
      }

      .st4 {
        fill: #323e95;
      }

      .st5 {
        fill: #2a3560;
      }
    </style>
  </defs>
  <g>
    <g>
      <path class="st1" d="M860.71,115.79c-67.72-52.84-148.46-89.46-236.73-104.48v104.48h236.73Z"/>
      <path class="st3" d="M623.97,235.45h349.54c-31.12-45.59-69.37-85.77-112.81-119.66h-236.73v119.66Z"/>
      <path class="st1" d="M623.97,355.11h410.07c-15.31-42.6-35.44-82.89-60.53-119.66h-349.54v119.66Z"/>
      <path class="st3" d="M623.97,474.77h438.24c-4.67-41.59-14.46-81.54-28.17-119.66h-410.07v119.66Z"/>
      <path class="st1" d="M623.97,594.43h438.24c2.21-19.66,3.58-39.58,3.58-59.84s-1.38-40.17-3.58-59.83h-438.24v119.67Z"/>
      <path class="st3" d="M1062.21,594.43H6.54c4.67,41.59,14.46,81.54,28.17,119.66h999.34c13.7-38.12,23.5-78.07,28.17-119.66Z"/>
      <path class="st1" d="M1034.04,714.09H34.71c15.31,42.6,35.44,82.89,60.53,119.66h878.27c25.1-36.77,45.22-77.06,60.53-119.66Z"/>
      <path class="st1" d="M860.71,953.42H208.05c90.11,70.31,203.17,112.6,326.33,112.6,123.15,0,236.21-42.28,326.33-112.6Z"/>
      <path class="st3" d="M973.51,833.76H95.24c31.12,45.59,69.37,85.77,112.81,119.66h652.66c43.43-33.9,81.69-74.07,112.81-119.66Z"/>
      <path class="st5" d="M623.97,474.77V11.31c-29.19-4.97-58.99-8.12-89.6-8.12-202.66,0-378.72,113.5-468.35,280.34l25.91-3.76,14.76-29.91,14.76,29.91,33,4.8-23.88,23.28,5.64,32.88-29.52-15.52-29.52,15.52,5.64-32.88-19.39-18.9C24.99,362.45,2.96,445.9,2.96,534.6c0,20.26,1.38,40.17,3.58,59.84h617.43v-119.66h0ZM136.22,530.88l-29.52-15.52-29.52,15.52,5.64-32.87-23.88-23.28,33.01-4.8,14.76-29.91,14.76,29.91,33,4.8-23.88,23.28,5.64,32.87ZM236.89,435.79l-29.52-15.52-29.52,15.52,5.64-32.87-23.88-23.28,33.01-4.8,14.76-29.91,14.76,29.91,33.01,4.8-23.88,23.28,5.64,32.87ZM231.25,218.21l5.64,32.87-29.52-15.52-29.52,15.52,5.64-32.87-23.88-23.28,33.01-4.79,14.76-29.91,14.76,29.91,33.01,4.79-23.88,23.28ZM332.97,530.88l-29.52-15.52-29.52,15.52,5.64-32.87-23.88-23.28,33-4.8,14.76-29.91,14.76,29.91,33,4.8-23.88,23.28,5.64,32.87ZM327.33,307.83l5.64,32.88-29.52-15.52-29.52,15.52,5.64-32.88-23.88-23.28,33-4.8,14.76-29.91,14.76,29.91,33,4.8-23.88,23.28ZM327.33,117.66l5.64,32.87-29.52-15.52-29.52,15.52,5.64-32.87-23.88-23.28,33-4.8,14.76-29.91,14.76,29.91,33,4.8-23.88,23.28ZM430.54,435.79l-29.52-15.52-29.52,15.52,5.64-32.87-23.88-23.28,33-4.8,14.76-29.91,14.76,29.91,33.01,4.8-23.88,23.28,5.64,32.87ZM424.91,218.21l5.64,32.87-29.52-15.52-29.52,15.52,5.64-32.87-23.88-23.28,33-4.79,14.76-29.91,14.76,29.91,33.01,4.79-23.88,23.28ZM529.73,530.88l-29.52-15.52-29.52,15.52,5.64-32.87-23.88-23.28,33-4.8,14.76-29.91,14.76,29.91,33.01,4.8-23.88,23.28,5.64,32.87ZM524.09,307.83l5.64,32.88-29.52-15.52-29.52,15.52,5.64-32.88-23.88-23.28,33-4.8,14.76-29.91,14.76,29.91,33.01,4.8-23.88,23.28ZM524.09,117.66l5.64,32.87-29.52-15.52-29.52,15.52,5.64-32.87-23.88-23.28,33-4.8,14.76-29.91,14.76,29.91,33.01,4.8-23.88,23.28Z"/>
      <polygon class="st0" points="303.45 59.67 288.69 89.58 255.69 94.38 279.57 117.66 273.93 150.53 303.45 135.01 332.97 150.53 327.33 117.66 351.22 94.38 318.21 89.58 303.45 59.67"/>
      <polygon class="st0" points="500.21 59.67 485.45 89.58 452.44 94.38 476.32 117.66 470.69 150.53 500.21 135.01 529.73 150.53 524.09 117.66 547.97 94.38 514.97 89.58 500.21 59.67"/>
      <path class="st0" d="M77.17,340.71l29.52-15.52,29.52,15.52-5.64-32.88,23.88-23.28-33-4.8-14.76-29.91-14.76,29.91-25.91,3.76c-.94,1.76-1.68,3.64-2.61,5.41l19.39,18.9-5.64,32.88Z"/>
      <polygon class="st0" points="303.45 249.85 288.69 279.76 255.69 284.55 279.57 307.83 273.93 340.71 303.45 325.19 332.97 340.71 327.33 307.83 351.22 284.55 318.21 279.76 303.45 249.85"/>
      <polygon class="st0" points="500.21 249.85 485.45 279.76 452.44 284.55 476.32 307.83 470.69 340.71 500.21 325.19 529.73 340.71 524.09 307.83 547.97 284.55 514.97 279.76 500.21 249.85"/>
      <polygon class="st0" points="121.46 469.93 106.69 440.03 91.94 469.93 58.93 474.73 82.81 498.01 77.17 530.88 106.69 515.36 136.22 530.88 130.58 498.01 154.46 474.73 121.46 469.93"/>
      <polygon class="st0" points="318.21 469.93 303.45 440.03 288.69 469.93 255.69 474.73 279.57 498.01 273.93 530.88 303.45 515.36 332.97 530.88 327.33 498.01 351.22 474.73 318.21 469.93"/>
      <polygon class="st0" points="514.97 469.93 500.21 440.03 485.45 469.93 452.44 474.73 476.32 498.01 470.69 530.88 500.21 515.36 529.73 530.88 524.09 498.01 547.97 474.73 514.97 469.93"/>
      <polygon class="st0" points="207.37 160.22 192.61 190.13 159.6 194.93 183.49 218.21 177.85 251.08 207.37 235.56 236.89 251.08 231.25 218.21 255.14 194.93 222.13 190.13 207.37 160.22"/>
      <polygon class="st0" points="401.02 160.22 386.26 190.13 353.26 194.93 377.14 218.21 371.5 251.08 401.02 235.56 430.54 251.08 424.91 218.21 448.79 194.93 415.78 190.13 401.02 160.22"/>
      <polygon class="st0" points="222.13 374.85 207.37 344.94 192.61 374.85 159.6 379.64 183.49 402.92 177.85 435.79 207.37 420.27 236.89 435.79 231.25 402.92 255.14 379.64 222.13 374.85"/>
      <polygon class="st0" points="415.78 374.85 401.02 344.94 386.26 374.85 353.26 379.64 377.14 402.92 371.5 435.79 401.02 420.27 430.54 435.79 424.91 402.92 448.79 379.64 415.78 374.85"/>
    </g>
    <path class="st2" d="M385.58,1075.29c15.31,42.6,35.44,82.89,60.53,119.66,31.12,45.59,69.37,85.77,112.81,119.66,90.11,70.31,203.17,112.6,326.33,112.6s236.21-42.29,326.33-112.6c43.43-33.9,81.69-74.07,112.81-119.66,25.1-36.77,45.22-77.06,60.53-119.66,13.7-38.12,23.5-78.07,28.17-119.66,2.21-19.66,3.58-39.58,3.58-59.84s-1.38-40.17-3.58-59.83c-4.67-41.59-14.46-81.54-28.17-119.66-15.31-42.6-35.44-82.89-60.53-119.66-31.12-45.59-69.37-85.77-112.81-119.66-67.72-52.84-148.46-89.46-236.73-104.48-29.19-4.97-58.99-8.12-89.6-8.12-202.66,0-378.72,113.5-468.35,280.34-.94,1.76-1.68,3.64-2.61,5.41-38.43,73.51-60.46,156.97-60.46,245.67,0,20.26,1.38,40.17,3.58,59.84,4.67,41.59,14.46,81.54,28.17,119.66Z"/>
  </g>
  <g>
    <path class="st0" d="M498.94,1087.24l-68.56,43.34c12.29,27.88,26.76,54.55,43.45,79.67l195.5-123.01h113.59l-272.63,171.52c6.63,7.87,13.68,15.36,20.75,22.83l265.34-167.01v319.25c16.65,3.85,33.6,6.87,50.81,9.12v-419.62h-451.27c4.47,21.89,10.7,43.09,17.77,63.91h85.25Z"/>
    <path class="st0" d="M847.18,390.21c-17.21,2.25-34.15,5.27-50.81,9.12v340.96l-277.54-175.29c-17.13,19.37-33.01,39.81-47.21,61.54l223.41,141.03h-113.65l-139.78-88.29c-6.61,13.2-12.8,26.6-18.31,40.4l75.65,47.89h-92.19c-6.07,20.8-10.63,42.2-14.14,63.97h454.58v-441.34Z"/>
    <path class="st0" d="M1440.57,831.55c-3.51-21.78-8.07-43.17-14.15-63.97h-78.58l64.6-40.87c-9.81-25.6-21.39-50.25-34.88-73.77l-182.36,114.65h-113.65l262.86-165.25c-7.91-10.76-16.05-21.31-24.73-31.43l-269.28,169.4v-337.46c-16.65-4.33-33.57-7.84-50.81-10.54v439.25h440.97Z"/>
    <path class="st0" d="M999.6,1440.88c17.24-2.71,34.16-6.22,50.81-10.55v-315.75l256.97,161.23c19.59-21.3,37.66-43.97,53.6-68.26l-191.47-120.31h113.6l107.91,67.79c5.21-10.34,10.55-20.61,15.09-31.33l-58.26-36.47h71.63c7.07-20.82,13.31-42.02,17.77-63.91h-437.65v417.54Z"/>
    <path class="st4" d="M1319.69,570.9c-69.49-80.95-162.88-140.4-269.28-168.06v337.46l269.28-169.4Z"/>
    <path class="st4" d="M796.37,399.34c-109.39,25.34-205.61,84.36-277.54,165.67l277.54,175.29v-340.96Z"/>
    <path class="st4" d="M1426.43,767.57c-4.06-13.9-8.84-27.47-13.98-40.87l-64.6,40.87h78.58Z"/>
    <path class="st4" d="M1406.11,1123.71c5.03-11.87,9.2-24.17,13.38-36.47h-71.63l58.26,36.47Z"/>
    <path class="st4" d="M531.04,1281.59c70.46,74.41,162.04,128.32,265.34,152.24v-319.26l-265.34,167.01Z"/>
    <path class="st4" d="M1050.41,1430.33c100.31-26.07,188.9-80.51,256.97-154.52l-256.97-161.23v315.75h0Z"/>
    <path class="st4" d="M413.69,1087.24c5,14.73,10.46,29.22,16.69,43.34l68.56-43.34h-85.25Z"/>
    <path class="st4" d="M423.29,719.68c-6.24,15.63-11.79,31.58-16.55,47.89h92.19l-75.65-47.89Z"/>
    <path class="st1" d="M1195.21,767.57l182.36-114.65c-10.07-17.56-21.21-34.37-33.15-50.6l-262.86,165.25h113.65Z"/>
    <path class="st1" d="M1169.51,1087.24l191.48,120.31c11.04-16.83,20.93-34.43,30.04-52.52l-107.91-67.79h-113.6Z"/>
    <path class="st1" d="M695.03,767.57l-223.41-141.03c-11.04,16.9-20.93,34.57-30.02,52.74l139.78,88.29h113.65Z"/>
    <path class="st1" d="M669.33,1087.24l-195.5,123.01c11.23,16.89,23.43,33.05,36.46,48.51l272.63-171.52h-113.59Z"/>
    <path class="st1" d="M847.18,1442.96c22.77,2.98,45.82,5.04,69.4,5.04,28.32,0,55.9-2.85,83.02-7.12v-417.54h437.65c7.03-34.49,10.74-70.19,10.74-106.75,0-29.02-2.95-57.28-7.43-85.04h-440.97v-439.25c-27.12-4.27-54.71-7.12-83.02-7.12-23.58,0-46.64,2.06-69.4,5.04v441.33h-454.58c-4.47,27.75-7.43,56.02-7.43,85.04,0,36.57,3.71,72.26,10.74,106.75h451.27v419.62Z"/>
  </g>
</svg>