<?xml version="1.0" encoding="UTF-8"?>
<svg id="Layer_1" xmlns="http://www.w3.org/2000/svg" version="1.1" viewBox="0 0 1448 1448">
  <!-- Generator: Adobe Illustrator 30.1.0, SVG Export Plug-In . SVG Version: 2.1.1 Build 136)  -->
  <defs>
    <style>
      .st0 {
        fill: #163588;
      }

      .st1 {
        fill: #fff;
      }
    </style>
  </defs>
  <circle class="st0" cx="724" cy="724" r="721.5"/>
  <g>
    <path class="st1" d="M496.51,627.43l-108.3-229.52h-.48l3.35,229.52h-60.73v-350.49h67.9l100.89,220.67h.48v-220.67h61.92v350.49h-65.03Z"/>
    <path class="st1" d="M681.56,558.1l-16.5,69.33h-68.86l100.41-350.49h72.2l99.46,350.49h-69.09l-16.26-69.33h-101.37ZM732.73,341.97l-37.54,158.75h74.59l-37.06-158.75Z"/>
    <path class="st1" d="M999.78,325.71c-10.36,0-18.97,3.15-25.82,9.44-6.86,6.3-10.28,14.55-10.28,24.74,0,7.02,1.39,13.23,4.18,18.65,2.79,5.42,8.41,11.2,16.86,17.33,8.45,6.14,21.04,13.11,37.77,20.92,25.34,11.95,44.87,23.43,58.58,34.43,13.71,11,23.23,22.47,28.57,34.43,5.34,11.95,8.01,26.06,8.01,42.32,0,20.4-4.62,38.57-13.87,54.51-9.25,15.94-22.44,28.41-39.57,37.42-17.14,9-37.26,13.51-60.37,13.51-36.18,0-64-9.96-83.44-29.89-19.45-19.92-29.97-49.73-31.56-89.42l67.18-5.98c.8,17.37,3.23,31.12,7.29,41.24,4.06,10.12,9.68,17.3,16.86,21.52,7.17,4.22,16.02,6.34,26.54,6.34,9.56,0,17.81-2.07,24.74-6.22,6.93-4.14,12.15-9.56,15.66-16.26,3.5-6.69,5.26-13.95,5.26-21.76s-2.03-15.54-6.1-22.23-11.28-13.55-21.64-20.56c-10.36-7.01-25.02-14.66-43.99-22.95-29.01-12.75-50.01-27.21-63-43.39-12.99-16.18-19.49-35.42-19.49-57.74,0-18.49,4.26-34.94,12.79-49.37,8.52-14.42,20.6-25.66,36.22-33.71,15.62-8.05,33.71-12.07,54.27-12.07,34.43,0,60.05,8.97,76.86,26.9,16.81,17.93,26.81,43.79,30,77.58l-66.46,3.59c-2.71-35.54-16.74-53.32-42.08-53.32Z"/>
    <path class="st1" d="M454.43,1171.06v-254.86c-20.4,21.36-42.88,37.3-67.42,47.82v-60.73c17.05-8.13,32.47-19.37,46.26-33.71,13.78-14.34,24.98-31.72,33.59-52.12h51.64v353.6h-64.07Z"/>
    <path class="st1" d="M818.08,997.49c0,37.77-2.95,69.77-8.85,95.99-5.9,26.22-16.26,46.7-31.08,61.44-14.82,14.75-35.07,22.12-60.73,22.12-29.33,0-51.48-8.25-66.46-24.74-14.98-16.5-24.91-37.42-29.77-62.76-4.86-25.34-7.29-56.1-7.29-92.29,0-38.73,2.87-71.09,8.61-97.07,5.74-25.98,16.06-46.26,30.96-60.85,14.9-14.58,35.66-21.88,62.28-21.88,28.21,0,49.89,8.01,65.03,24.03,15.14,16.02,25.14,36.94,30,62.76,4.86,25.82,7.29,56.9,7.29,93.24ZM678.46,996.77c0,29.49.87,52.92,2.63,70.29,1.75,17.37,5.34,30.72,10.76,40.05,5.42,9.32,13.39,13.99,23.91,13.99,9.56,0,17.01-3.5,22.35-10.52,5.34-7.01,9.24-19.32,11.72-36.94,2.47-17.61,3.71-42.92,3.71-75.91,0-28.37-.64-50.76-1.91-67.18-1.28-16.41-4.62-30.04-10.04-40.88-5.42-10.84-13.95-16.26-25.58-16.26s-20.12,4.74-25.46,14.23c-5.34,9.49-8.69,22.4-10.04,38.73-1.36,16.34-2.03,39.81-2.03,70.41Z"/>
    <path class="st1" d="M1062.9,997.49c0,37.77-2.95,69.77-8.85,95.99-5.9,26.22-16.26,46.7-31.08,61.44-14.82,14.75-35.07,22.12-60.73,22.12-29.33,0-51.48-8.25-66.46-24.74-14.98-16.5-24.91-37.42-29.77-62.76-4.86-25.34-7.29-56.1-7.29-92.29,0-38.73,2.87-71.09,8.61-97.07,5.74-25.98,16.06-46.26,30.96-60.85,14.9-14.58,35.66-21.88,62.28-21.88,28.21,0,49.89,8.01,65.03,24.03,15.14,16.02,25.14,36.94,30,62.76,4.86,25.82,7.29,56.9,7.29,93.24ZM923.28,996.77c0,29.49.87,52.92,2.63,70.29,1.75,17.37,5.34,30.72,10.76,40.05,5.42,9.32,13.39,13.99,23.91,13.99,9.56,0,17.01-3.5,22.35-10.52,5.34-7.01,9.24-19.32,11.72-36.94,2.47-17.61,3.71-42.92,3.71-75.91,0-28.37-.64-50.76-1.91-67.18-1.28-16.41-4.62-30.04-10.04-40.88-5.42-10.84-13.95-16.26-25.58-16.26s-20.12,4.74-25.46,14.23c-5.34,9.49-8.69,22.4-10.04,38.73-1.36,16.34-2.03,39.81-2.03,70.41Z"/>
  </g>
</svg>