<?xml version="1.0" encoding="UTF-8"?>
<svg id="Layer_1" xmlns="http://www.w3.org/2000/svg" version="1.1" viewBox="0 0 1448 1448">
  <!-- Generator: Adobe Illustrator 30.1.0, SVG Export Plug-In . SVG Version: 2.1.1 Build 136)  -->
  <defs>
    <style>
      .st0 {
        fill: #fff;
      }

      .st1 {
        fill: #cb001c;
      }
    </style>
  </defs>
  <circle class="st1" cx="724" cy="724" r="721.5"/>
  <g>
    <path class="st0" d="M366.18,321.45c-12.15,0-22.25,3.69-30.28,11.08-8.04,7.39-12.06,17.06-12.06,29.02,0,8.23,1.63,15.52,4.91,21.87,3.27,6.36,9.86,13.13,19.77,20.33,9.91,7.2,24.67,15.38,44.3,24.53,29.72,14.02,52.62,27.48,68.69,40.38,16.07,12.9,27.24,26.36,33.51,40.38,6.26,14.02,9.39,30.56,9.39,49.63,0,23.93-5.42,45.24-16.26,63.93-10.84,18.69-26.31,33.32-46.4,43.88-20.1,10.56-43.7,15.84-70.8,15.84-42.43,0-75.05-11.68-97.85-35.05-22.81-23.36-35.14-58.32-37.01-104.86l78.79-7.01c.93,20.38,3.79,36.5,8.55,48.37,4.77,11.87,11.36,20.28,19.77,25.23,8.41,4.96,18.79,7.43,31.12,7.43,11.22,0,20.89-2.43,29.02-7.29,8.13-4.86,14.25-11.22,18.37-19.07,4.11-7.85,6.17-16.35,6.17-25.52s-2.38-18.22-7.15-26.08c-4.77-7.85-13.23-15.89-25.37-24.11-12.15-8.22-29.35-17.2-51.59-26.92-34.02-14.95-58.65-31.92-73.88-50.89-15.24-18.97-22.85-41.54-22.85-67.71,0-21.68,5-40.98,15-57.9,10-16.92,24.16-30.09,42.48-39.53,18.32-9.44,39.53-14.16,63.65-14.16,40.38,0,70.42,10.51,90.14,31.54,19.72,21.03,31.45,51.36,35.19,90.99l-77.95,4.21c-3.18-41.68-19.63-62.53-49.35-62.53Z"/>
    <path class="st0" d="M883.77,620.34l7.29,5.05-44.58,55.52c-9.35-3.93-19.44-9.86-30.28-17.8-10.84-7.94-20.19-16.03-28.04-24.25-31.22,28.98-66.92,43.46-107.11,43.46-27.29,0-50.8-5.19-70.52-15.56-19.72-10.37-34.72-24.53-45-42.48-10.28-17.94-15.42-38.13-15.42-60.56,0-18.88,3.93-35.84,11.78-50.89,7.85-15.04,18.04-28.27,30.56-39.67,12.52-11.4,27.57-22.71,45.14-33.93l-9.25-12.06c-20.94-27.66-31.4-54.49-31.4-80.47,0-17.57,4.25-33.13,12.76-46.68,8.5-13.55,20.7-24.07,36.59-31.54,15.89-7.47,34.49-11.22,55.8-11.22s39.11,4.16,53.97,12.48c14.86,8.32,26.03,19.16,33.51,32.52,7.47,13.37,11.22,27.71,11.22,43.04,0,21.13-5.84,39.58-17.52,55.38-11.69,15.8-28.09,31.36-49.21,46.68l50.47,68.97c5.42-12.71,10.28-26.26,14.58-40.66l66.73,16.26c-6.73,31.78-17.66,61.31-32.81,88.6,6.91,7.48,14.16,14.02,21.73,19.63,7.57,5.61,17.24,12.34,29.02,20.19ZM746.38,584.45l-71.5-95.33c-14.96,11.59-26.54,23.37-34.77,35.33-8.23,11.96-12.34,25.24-12.34,39.82,0,18.51,4.95,32.85,14.86,43.04,9.91,10.19,22.71,15.28,38.41,15.28,22.99,0,44.77-12.71,65.33-38.13ZM736.85,343.6c0-10.09-2.85-18.74-8.55-25.94-5.7-7.19-13.88-10.79-24.53-10.79s-19.21,3.04-25.09,9.11c-5.89,6.08-8.83,14.26-8.83,24.53,0,12.71,6.63,28.04,19.91,45.98l9.53,13.18c12.15-9.16,21.45-18.18,27.9-27.06,6.45-8.88,9.67-18.55,9.67-29.02Z"/>
    <path class="st0" d="M1193.87,387.9c0,29.91-5.7,54.68-17.1,74.3-11.4,19.63-27.25,34.12-47.53,43.46-20.28,9.35-43.88,14.02-70.8,14.02h-41.78v155.61h-77.95v-411.05h120.29c33.46,0,60.09,4.91,79.91,14.72,19.81,9.81,33.93,23.79,42.34,41.92,8.41,18.13,12.62,40.47,12.62,67.01ZM1016.67,452.67h29.16c22.8,0,39.67-4.91,50.61-14.72,10.94-9.81,16.4-25.38,16.4-46.68s-5.05-35.93-15.14-45.56c-10.09-9.63-26.08-14.44-47.95-14.44h-33.09v121.41Z"/>
    <path class="st0" d="M404.45,846.16l-12.9,76.83c15.14-9.53,31.96-14.3,50.47-14.3,20.19,0,38.74,5.7,55.66,17.1,16.92,11.4,30.37,27.29,40.38,47.67,10,20.38,15,43.56,15,69.54,0,29.35-5.33,55.14-15.98,77.39-10.65,22.25-25.89,39.53-45.7,51.87-19.81,12.34-42.9,18.51-69.26,18.51-34.96,0-62.76-10-83.41-30-20.66-20-33.6-47.01-38.83-81.03l75.42-7.01c1.12,9.53,3.78,18.41,7.99,26.64,4.21,8.23,9.86,14.82,16.96,19.77,7.1,4.95,15.32,7.43,24.67,7.43,9.91,0,18.79-2.94,26.64-8.83,7.85-5.89,14.02-14.86,18.51-26.92,4.49-12.06,6.73-26.87,6.73-44.44,0-22.8-4.82-41.26-14.44-55.38-9.63-14.11-23.04-21.17-40.24-21.17-19.63,0-36.73,10.28-51.31,30.84l-60.84-8.97,38.41-215.62h184.21v70.1h-128.14Z"/>
    <path class="st0" d="M834.56,980.19c0,44.3-3.46,81.83-10.37,112.58-6.92,30.75-19.07,54.77-36.45,72.06-17.38,17.29-41.12,25.94-71.22,25.94-34.4,0-60.38-9.67-77.95-29.02-17.57-19.35-29.21-43.88-34.91-73.6-5.7-29.72-8.55-65.79-8.55-108.23,0-45.42,3.36-83.37,10.09-113.84,6.73-30.47,18.83-54.25,36.31-71.36,17.48-17.1,41.82-25.65,73.04-25.65,33.09,0,58.5,9.39,76.26,28.18,17.76,18.79,29.48,43.32,35.19,73.6,5.7,30.28,8.55,66.73,8.55,109.35ZM670.82,979.35c0,34.58,1.03,62.06,3.08,82.43,2.05,20.38,6.26,36.03,12.62,46.96,6.35,10.94,15.7,16.4,28.04,16.4,11.22,0,19.95-4.11,26.22-12.34,6.26-8.22,10.84-22.66,13.74-43.32,2.9-20.65,4.35-50.33,4.35-89.02,0-33.27-.75-59.53-2.24-78.79-1.5-19.25-5.42-35.23-11.78-47.95-6.36-12.71-16.36-19.07-30-19.07s-23.6,5.56-29.86,16.68c-6.26,11.12-10.19,26.26-11.78,45.42-1.59,19.16-2.38,46.68-2.38,82.57Z"/>
    <path class="st0" d="M1121.68,980.19c0,44.3-3.46,81.83-10.37,112.58-6.92,30.75-19.07,54.77-36.45,72.06-17.38,17.29-41.12,25.94-71.22,25.94-34.39,0-60.38-9.67-77.95-29.02-17.57-19.35-29.21-43.88-34.91-73.6-5.7-29.72-8.55-65.79-8.55-108.23,0-45.42,3.36-83.37,10.09-113.84,6.73-30.47,18.83-54.25,36.31-71.36,17.48-17.1,41.82-25.65,73.04-25.65,33.09,0,58.5,9.39,76.26,28.18,17.76,18.79,29.48,43.32,35.19,73.6,5.7,30.28,8.55,66.73,8.55,109.35ZM957.93,979.35c0,34.58,1.02,62.06,3.08,82.43,2.05,20.38,6.26,36.03,12.62,46.96,6.35,10.94,15.7,16.4,28.04,16.4,11.22,0,19.95-4.11,26.22-12.34,6.26-8.22,10.84-22.66,13.74-43.32,2.9-20.65,4.35-50.33,4.35-89.02,0-33.27-.75-59.53-2.24-78.79-1.5-19.25-5.42-35.23-11.78-47.95-6.36-12.71-16.36-19.07-30-19.07s-23.6,5.56-29.86,16.68c-6.27,11.12-10.19,26.26-11.78,45.42-1.59,19.16-2.38,46.68-2.38,82.57Z"/>
  </g>
</svg>