<?xml version="1.0" encoding="UTF-8"?>
<svg id="Layer_1" xmlns="http://www.w3.org/2000/svg" version="1.1" viewBox="0 0 1448 1448">
  <!-- Generator: Adobe Illustrator 30.1.0, SVG Export Plug-In . SVG Version: 2.1.1 Build 136)  -->
  <defs>
    <style>
      .st0 {
        fill: #fff;
      }

      .st1 {
        fill: #cb001c;
      }

      .st2 {
        isolation: isolate;
        opacity: .3;
      }

      .st3 {
        fill: #f4f4f4;
      }

      .st4 {
        fill: #2a3560;
      }
    </style>
  </defs>
  <g>
    <path class="st1" d="M1168.98,156.26c-92.06-71.83-201.82-121.61-321.81-142.03v142.03h321.81Z"/>
    <path class="st3" d="M847.16,318.92h475.16c-42.3-61.97-94.3-116.6-153.35-162.67h-321.81v162.67h0Z"/>
    <path class="st1" d="M847.16,481.59h557.45c-20.81-57.91-48.18-112.68-82.28-162.67h-475.16v162.67Z"/>
    <path class="st3" d="M847.16,644.26h595.74c-6.35-56.54-19.66-110.85-38.29-162.67h-557.45v162.67h0Z"/>
    <path class="st1" d="M847.16,806.92h595.74c3-26.73,4.87-53.81,4.87-81.35s-1.88-54.61-4.87-81.33h-595.74v162.68h0Z"/>
    <path class="st3" d="M1442.9,806.92H7.83c6.35,56.54,19.66,110.85,38.29,162.67h1358.5c18.62-51.82,31.95-106.13,38.29-162.67h-.01Z"/>
    <path class="st1" d="M1404.61,969.59H46.12c20.81,57.91,48.18,112.68,82.28,162.67h1193.92c34.12-49.99,61.47-104.76,82.28-162.67h0Z"/>
    <path class="st1" d="M1168.98,1294.93H281.76c122.5,95.58,276.19,153.07,443.61,153.07s321.1-57.48,443.61-153.07h0Z"/>
    <path class="st3" d="M1322.32,1132.27H128.41c42.3,61.98,94.3,116.6,153.35,162.67h887.23c59.04-46.08,111.05-100.69,153.35-162.67h-.01Z"/>
    <path class="st4" d="M847.16,644.26V14.23c-39.68-6.76-80.19-11.04-121.8-11.04C449.86,3.19,210.53,157.48,88.68,384.28l35.22-5.11,20.06-40.66,20.06,40.66,44.86,6.53-32.46,31.65,7.67,44.7-40.13-21.1-40.13,21.1,7.67-44.7-26.36-25.69C32.91,491.57,2.96,605.01,2.96,725.59c0,27.54,1.88,54.61,4.87,81.35h839.33v-162.67h0ZM184.11,720.53l-40.13-21.1-40.13,21.1,7.67-44.68-32.46-31.65,44.87-6.53,20.06-40.66,20.06,40.66,44.86,6.53-32.46,31.65,7.67,44.68h-.01ZM320.96,591.27l-40.13-21.1-40.13,21.1,7.67-44.68-32.46-31.65,44.87-6.53,20.06-40.66,20.06,40.66,44.87,6.53-32.46,31.65,7.67,44.68h-.03ZM313.3,295.49l7.67,44.68-40.13-21.1-40.13,21.1,7.67-44.68-32.46-31.65,44.87-6.51,20.06-40.66,20.06,40.66,44.87,6.51-32.46,31.65h-.03ZM451.58,720.53l-40.13-21.1-40.13,21.1,7.67-44.68-32.46-31.65,44.86-6.53,20.06-40.66,20.06,40.66,44.86,6.53-32.46,31.65,7.67,44.68h0ZM443.91,417.32l7.67,44.7-40.13-21.1-40.13,21.1,7.67-44.7-32.46-31.65,44.86-6.53,20.06-40.66,20.06,40.66,44.86,6.53-32.46,31.65h0ZM443.91,158.8l7.67,44.68-40.13-21.1-40.13,21.1,7.67-44.68-32.46-31.65,44.86-6.53,20.06-40.66,20.06,40.66,44.86,6.53-32.46,31.65h0ZM584.21,591.27l-40.13-21.1-40.13,21.1,7.67-44.68-32.46-31.65,44.86-6.53,20.06-40.66,20.06,40.66,44.87,6.53-32.46,31.65,7.67,44.68h-.01ZM576.56,295.49l7.67,44.68-40.13-21.1-40.13,21.1,7.67-44.68-32.46-31.65,44.86-6.51,20.06-40.66,20.06,40.66,44.87,6.51-32.46,31.65h-.01ZM719.05,720.53l-40.13-21.1-40.13,21.1,7.67-44.68-32.46-31.65,44.86-6.53,20.06-40.66,20.06,40.66,44.87,6.53-32.46,31.65,7.67,44.68h-.01ZM711.38,417.32l7.67,44.7-40.13-21.1-40.13,21.1,7.67-44.7-32.46-31.65,44.86-6.53,20.06-40.66,20.06,40.66,44.87,6.53-32.46,31.65h-.01ZM711.38,158.8l7.67,44.68-40.13-21.1-40.13,21.1,7.67-44.68-32.46-31.65,44.86-6.53,20.06-40.66,20.06,40.66,44.87,6.53-32.46,31.65h-.01Z"/>
    <polygon class="st0" points="411.45 79.97 391.38 120.63 346.52 127.15 378.98 158.8 371.32 203.48 411.45 182.39 451.58 203.48 443.91 158.8 476.38 127.15 431.51 120.63 411.45 79.97"/>
    <polygon class="st0" points="678.92 79.97 658.86 120.63 613.98 127.15 646.45 158.8 638.79 203.48 678.92 182.39 719.05 203.48 711.38 158.8 743.85 127.15 698.99 120.63 678.92 79.97"/>
    <path class="st0" d="M103.84,462.01l40.13-21.1,40.13,21.1-7.67-44.7,32.46-31.65-44.86-6.53-20.06-40.66-20.06,40.66-35.22,5.11c-1.28,2.39-2.28,4.95-3.55,7.35l26.36,25.69-7.67,44.7h.01Z"/>
    <polygon class="st0" points="411.45 338.5 391.38 379.16 346.52 385.67 378.98 417.32 371.32 462.01 411.45 440.92 451.58 462.01 443.91 417.32 476.38 385.67 431.51 379.16 411.45 338.5"/>
    <polygon class="st0" points="678.92 338.5 658.86 379.16 613.98 385.67 646.45 417.32 638.79 462.01 678.92 440.92 719.05 462.01 711.38 417.32 743.85 385.67 698.99 379.16 678.92 338.5"/>
    <polygon class="st0" points="164.05 637.68 143.97 597.03 123.92 637.68 79.05 644.2 111.51 675.85 103.84 720.53 143.97 699.43 184.11 720.53 176.45 675.85 208.91 644.2 164.05 637.68"/>
    <polygon class="st0" points="431.51 637.68 411.45 597.03 391.38 637.68 346.52 644.2 378.98 675.85 371.32 720.53 411.45 699.43 451.58 720.53 443.91 675.85 476.38 644.2 431.51 637.68"/>
    <polygon class="st0" points="698.99 637.68 678.92 597.03 658.86 637.68 613.98 644.2 646.45 675.85 638.79 720.53 678.92 699.43 719.05 720.53 711.38 675.85 743.85 644.2 698.99 637.68"/>
    <polygon class="st0" points="280.83 216.66 260.77 257.32 215.9 263.84 248.37 295.49 240.71 340.17 280.83 319.07 320.96 340.17 313.3 295.49 345.77 263.84 300.9 257.32 280.83 216.66"/>
    <polygon class="st0" points="544.08 216.66 524.02 257.32 479.16 263.84 511.62 295.49 503.95 340.17 544.08 319.07 584.21 340.17 576.56 295.49 609.02 263.84 564.15 257.32 544.08 216.66"/>
    <polygon class="st0" points="300.9 508.42 280.83 467.76 260.77 508.42 215.9 514.94 248.37 546.58 240.71 591.27 280.83 570.17 320.96 591.27 313.3 546.58 345.77 514.94 300.9 508.42"/>
    <polygon class="st0" points="564.15 508.42 544.08 467.76 524.02 508.42 479.16 514.94 511.62 546.58 503.95 591.27 544.08 570.17 584.21 591.27 576.56 546.58 609.02 514.94 564.15 508.42"/>
  </g>
  <path class="st2" d="M129.2,937.67c18.22,50.71,42.19,98.67,72.05,142.44,37.05,54.27,82.58,102.1,134.29,142.44,107.27,83.7,241.85,134.04,388.46,134.04s281.18-50.34,388.46-134.04c51.7-40.35,97.24-88.17,134.29-142.44,29.88-43.77,53.83-91.73,72.05-142.44,16.31-45.38,27.97-92.93,33.53-142.44,2.63-23.4,4.26-47.12,4.26-71.23s-1.64-47.82-4.26-71.22c-5.56-49.51-17.21-97.06-33.53-142.44-18.23-50.71-42.19-98.67-72.05-142.44-37.05-54.27-82.58-102.1-134.29-142.44-80.61-62.9-176.73-106.49-281.8-124.37-34.75-5.92-70.22-9.67-106.66-9.67-241.25,0-450.83,135.11-557.52,333.72-1.12,2.1-2,4.33-3.11,6.44-45.75,87.51-71.97,186.86-71.97,292.44,0,24.12,1.64,47.82,4.26,71.23,5.56,49.51,17.21,97.06,33.53,142.44h0Z"/>
  <g>
    <g>
      <path class="st0" d="M343.95,924.29c-30.48,0-55.12-4.98-73.25-14.79-18.46-10-31.91-25.89-39.99-47.23-7.87-20.78-11.85-48.78-11.85-83.24v-226.7h77.1v232.29c0,14.33,1.19,26.94,3.53,37.5,2.21,9.95,6.66,18.18,13.23,24.45,6.34,6.06,15.78,9.13,28.07,9.13,10.62,0,19.23-1.83,25.6-5.46,6.07-3.45,10.83-9.95,14.15-19.33,3.53-9.97,5.32-24.41,5.32-42.9v-235.69h77.1v239.34c0,44.77-9.9,78.39-29.43,99.95-19.65,21.68-49.79,32.68-89.58,32.68Z"/>
      <path d="M458.2,557.09v234.58c0,43.76-9.4,76.01-28.2,96.75-18.8,20.75-47.48,31.11-86.05,31.11-29.82,0-53.48-4.74-70.98-14.22-17.5-9.48-30.1-24.39-37.8-44.73-7.7-20.34-11.55-47.52-11.55-81.55v-221.94h67.58v227.53c0,14.75,1.22,27.59,3.65,38.53,2.43,10.94,7.29,19.9,14.59,26.86,7.29,6.97,17.74,10.45,31.36,10.45,11.5,0,20.82-2.03,27.95-6.08,7.13-4.05,12.56-11.34,16.29-21.88,3.73-10.53,5.59-25.36,5.59-44.49v-230.93h67.58M467.72,547.57h-86.62v240.45c0,17.95-1.7,31.85-5.05,41.31-2.92,8.26-6.97,13.91-12.01,16.77-5.65,3.21-13.47,4.84-23.25,4.84-11.02,0-19.35-2.63-24.78-7.81-5.96-5.69-9.84-12.9-11.87-22.04-2.27-10.21-3.42-22.48-3.42-36.46v-237.05h-86.62v231.46c0,35.03,4.09,63.61,12.16,84.93,8.49,22.44,22.68,39.17,42.17,49.73,18.83,10.2,44.24,15.37,75.52,15.37,41.19,0,72.52-11.52,93.11-34.24,10.33-11.4,18.15-26.03,23.23-43.47,4.93-16.92,7.43-36.99,7.43-59.67v-244.1h0Z"/>
    </g>
    <g>
      <path class="st0" d="M632.98,924.29c-37.95,0-67.64-10.71-88.24-31.82-20.53-21.03-31.78-52.67-33.44-94.05l-.18-4.53,77.78-6.92.23,4.97c.78,17.04,3.16,30.63,7.08,40.38,3.71,9.25,8.8,15.82,15.13,19.55,6.52,3.84,14.78,5.78,24.57,5.78,8.81,0,16.45-1.9,22.72-5.65,6.25-3.74,11.01-8.67,14.15-14.65,3.19-6.09,4.8-12.79,4.8-19.91s-1.85-14.12-5.51-20.13c-3.75-6.18-10.68-12.72-20.6-19.43-10.25-6.93-25.04-14.64-43.96-22.92-30.07-13.22-52.23-28.52-65.86-45.5-13.84-17.23-20.86-37.99-20.86-61.69,0-19.57,4.6-37.28,13.67-52.62,9.09-15.38,22.13-27.52,38.75-36.08,16.49-8.5,35.79-12.8,57.36-12.8,36.21,0,63.67,9.71,81.62,28.85,17.75,18.93,28.44,46.42,31.77,81.69l.47,4.94-77.18,4.16-.35-4.64c-2.56-33.52-15-49.81-38.04-49.81-9.38,0-16.92,2.73-23.03,8.35-6,5.51-8.91,12.59-8.91,21.65,0,6.34,1.25,11.98,3.73,16.78,2.48,4.82,7.76,10.19,15.7,15.95,8.31,6.04,20.97,13.04,37.62,20.81,26,12.26,46.35,24.24,60.52,35.6,14.47,11.61,24.7,23.98,30.42,36.78,5.68,12.72,8.56,27.85,8.56,44.97,0,21.49-4.96,40.95-14.74,57.81-9.82,16.92-23.99,30.33-42.13,39.87-18.04,9.48-39.43,14.28-63.59,14.28Z"/>
      <path d="M630.54,551.01c35,0,61.05,9.12,78.15,27.35,17.1,18.23,27.26,44.53,30.51,78.88l-67.58,3.65c-2.76-36.14-17.02-54.21-42.78-54.21-10.54,0-19.29,3.2-26.25,9.6-6.97,6.4-10.45,14.79-10.45,25.16,0,7.13,1.42,13.45,4.25,18.96,2.83,5.51,8.55,11.39,17.14,17.62,8.59,6.24,21.39,13.33,38.41,21.27,25.77,12.15,45.62,23.82,59.56,35,13.93,11.18,23.62,22.85,29.05,35,5.43,12.15,8.14,26.5,8.14,43.03,0,20.75-4.7,39.22-14.1,55.42-9.4,16.21-22.81,28.89-40.23,38.04-17.42,9.15-37.88,13.73-61.38,13.73-36.79,0-65.07-10.13-84.84-30.39-19.77-20.26-30.47-50.56-32.09-90.91l68.31-6.08c.81,17.67,3.28,31.64,7.41,41.93,4.13,10.29,9.85,17.59,17.14,21.88,7.29,4.3,16.29,6.44,26.98,6.44,9.72,0,18.11-2.11,25.16-6.32,7.05-4.21,12.36-9.72,15.92-16.53,3.56-6.81,5.35-14.18,5.35-22.12s-2.07-15.8-6.2-22.61c-4.13-6.81-11.47-13.77-22-20.91-10.54-7.13-25.44-14.91-44.73-23.34-29.5-12.96-50.85-27.67-64.05-44.12-13.21-16.45-19.81-36.01-19.81-58.7,0-18.8,4.33-35.53,13.01-50.2,8.67-14.66,20.94-26.09,36.83-34.28,15.88-8.18,34.28-12.28,55.18-12.28M630.54,541.49c-22.34,0-42.37,4.49-59.54,13.33-17.43,8.98-31.11,21.73-40.66,37.9-9.51,16.09-14.33,34.6-14.33,55.04,0,24.81,7.37,46.57,21.91,64.67,14.11,17.58,36.87,33.35,67.65,46.87,18.68,8.16,33.21,15.73,43.22,22.5,9.34,6.33,15.8,12.37,19.2,17.96,3.24,5.34,4.82,11.11,4.82,17.66s-1.39,12.23-4.26,17.71c-2.76,5.27-6.81,9.45-12.37,12.77-5.52,3.3-12.34,4.97-20.27,4.97-8.93,0-16.38-1.72-22.15-5.12-5.41-3.18-9.82-8.97-13.13-17.22-3.71-9.25-5.98-22.31-6.74-38.82l-.45-9.93-9.9.88-68.31,6.08-9.03.8.36,9.06c1.71,42.59,13.41,75.29,34.79,97.18,21.53,22.07,52.37,33.26,91.65,33.26,24.94,0,47.08-4.99,65.81-14.83,18.95-9.96,33.77-23.99,44.04-41.69,10.21-17.6,15.38-37.86,15.38-60.2,0-17.8-3.02-33.58-8.97-46.91-6.03-13.49-16.72-26.46-31.78-38.55-14.46-11.6-35.14-23.78-61.45-36.19-16.42-7.66-28.81-14.5-36.87-20.36-9.14-6.63-12.8-11.42-14.27-14.27-2.12-4.12-3.2-9.04-3.2-14.61,0-7.65,2.41-13.59,7.37-18.15,5.19-4.77,11.67-7.09,19.81-7.09,12.8,0,30.18,4.71,33.29,45.41l.71,9.29,9.3-.5,67.58-3.65,9.9-.53-.93-9.87c-3.43-36.35-14.55-64.78-33.04-84.5-18.89-20.14-47.52-30.36-85.1-30.36h0Z"/>
    </g>
    <g>
      <path class="st0" d="M895.51,924.29c-62.64,0-100.7-34.77-113.1-103.34l-.89-4.9,72.09-9.78.87,4.39c6.36,32.1,19.86,47.7,41.27,47.7,11.62,0,20.15-3.93,26.05-12.02,6.17-8.44,9.29-20.13,9.29-34.75,0-17.51-4.34-31.29-12.9-40.96-8.42-9.5-21.94-14.32-40.19-14.32h-27.18l9.48-61.79h4.09c17.21,0,30.97-4.35,40.88-12.94,9.85-8.53,14.64-20.15,14.64-35.54,0-9.5-2.59-16.81-7.91-22.35-5.27-5.48-12.1-8.14-20.88-8.14-19.75,0-31.17,14.3-34.9,43.72l-.62,4.9-69.7-11.48.33-4.35c1.34-17.95,6.2-34.6,14.44-49.48,8.32-15.03,20.41-27.22,35.93-36.21,15.5-8.97,34.42-13.52,56.23-13.52,20.29,0,38.24,3.98,53.37,11.84,15.25,7.93,27.14,19.09,35.34,33.19,8.17,14.04,12.31,30.18,12.31,47.97,0,33.26-15.18,59.65-45.14,78.54,37.71,17.39,56.81,48.74,56.81,93.32,0,20.76-4.26,39.68-12.67,56.24-8.5,16.73-21.23,30.07-37.84,39.65-16.55,9.54-36.57,14.37-59.5,14.37Z"/>
      <path d="M892.83,553.93c19.61,0,36.66,3.77,51.17,11.3,14.5,7.54,25.64,17.99,33.42,31.36,7.78,13.37,11.67,28.56,11.67,45.58,0,34.52-17.02,60.93-51.05,79.24,41.81,15.72,62.72,46.59,62.72,92.62,0,20.1-4.05,38.13-12.15,54.09-8.11,15.96-20.1,28.52-35.98,37.68-15.88,9.15-34.92,13.73-57.12,13.73-60.28,0-96.42-33.14-108.42-99.42l62.72-8.51c6.81,34.36,22.12,51.53,45.94,51.53,13.13,0,23.09-4.66,29.9-13.98,6.81-9.32,10.21-21.84,10.21-37.56,0-18.8-4.7-33.5-14.1-44.12-9.4-10.61-23.99-15.92-43.76-15.92h-21.63l8.02-52.26c18.47,0,33.14-4.7,44-14.1,10.86-9.4,16.29-22.44,16.29-39.14,0-10.7-3.08-19.24-9.24-25.65-6.16-6.4-14.26-9.6-24.31-9.6-22.36,0-35.57,15.96-39.62,47.89l-60.53-9.97c1.3-17.34,5.91-33.18,13.86-47.52,7.94-14.34,19.33-25.8,34.15-34.4,14.83-8.59,32.77-12.88,53.84-12.88M892.83,544.41c-22.66,0-42.39,4.77-58.62,14.17-16.28,9.43-28.97,22.23-37.71,38.03-8.57,15.48-13.63,32.79-15.02,51.43l-.65,8.69,8.6,1.42,60.53,9.97,9.75,1.61,1.24-9.8c4.5-35.46,19.38-39.56,30.18-39.56,7.41,0,13.12,2.19,17.45,6.68,4.42,4.6,6.57,10.83,6.57,19.04,0,13.92-4.25,24.37-13,31.94-9.03,7.81-21.73,11.78-37.77,11.78h-8.17l-1.24,8.08-8.02,52.26-1.68,10.97h32.73c16.83,0,29.15,4.28,36.63,12.71,7.77,8.77,11.7,21.49,11.7,37.8,0,13.59-2.82,24.33-8.38,31.94-5.02,6.87-12.08,10.07-22.21,10.07-9.15,0-16.43-3.17-22.24-9.7-6.47-7.26-11.31-18.76-14.36-34.17l-1.74-8.79-8.88,1.2-62.72,8.51-9.86,1.34,1.77,9.79c6.35,35.08,19.48,61.96,39.03,79.89,19.8,18.15,46.29,27.36,78.75,27.36,23.78,0,44.6-5.05,61.88-15.01,17.43-10.05,30.79-24.05,39.71-41.62,8.75-17.24,13.19-36.89,13.19-58.4,0-24.84-5.83-46.04-17.32-63.01-8.51-12.57-20.19-22.92-34.85-30.91,26.89-19.41,40.49-45.55,40.49-77.94,0-18.64-4.36-35.59-12.96-50.37-8.66-14.89-21.2-26.67-37.26-35.02-15.81-8.21-34.5-12.38-55.56-12.38h0Z"/>
    </g>
    <g>
      <path class="st0" d="M1143.7,924.29c-31.08,0-55-8.99-71.1-26.72-15.76-17.35-26.33-39.6-31.42-66.11-4.98-25.93-7.5-57.8-7.5-94.73,0-39.54,2.98-73.09,8.86-99.72,6.01-27.21,17.04-48.83,32.8-64.24,16-15.66,38.43-23.6,66.65-23.6,29.91,0,53.32,8.72,69.58,25.92,15.96,16.88,26.63,39.16,31.73,66.2,4.97,26.43,7.5,58.62,7.5,95.68s-3.07,71.76-9.11,98.64c-6.17,27.44-17.24,49.24-32.89,64.8-15.92,15.84-37.83,23.87-65.1,23.87ZM1142.24,615.57c-10.07,0-17.18,3.94-21.74,12.04-5.07,9-8.3,21.59-9.61,37.44-1.36,16.39-2.05,40.34-2.05,71.2s.89,53.59,2.65,70.99c1.7,16.9,5.18,29.96,10.32,38.8,4.63,7.98,11.24,11.85,20.19,11.85,8.23,0,14.42-2.88,18.94-8.82,4.9-6.44,8.6-18.33,10.99-35.33,2.47-17.62,3.72-43.36,3.72-76.52,0-28.57-.65-51.43-1.93-67.94-1.25-16-4.52-29.39-9.72-39.81-4.68-9.35-11.79-13.9-21.75-13.9Z"/>
      <path d="M1141.99,553.93c28.68,0,50.72,8.14,66.12,24.43,15.39,16.29,25.56,37.56,30.51,63.81,4.94,26.25,7.41,57.85,7.41,94.8s-3,70.94-8.99,97.6c-6,26.66-16.53,47.48-31.6,62.47-15.07,14.99-35.65,22.48-61.74,22.48-29.82,0-52.35-8.39-67.58-25.16-15.23-16.77-25.32-38.04-30.26-63.81-4.95-25.77-7.41-57.04-7.41-93.83,0-39.38,2.92-72.28,8.75-98.69,5.83-26.41,16.32-47.04,31.48-61.86,15.15-14.83,36.26-22.24,63.32-22.24M1141.99,862.65c9.72,0,17.3-3.56,22.73-10.7,5.43-7.13,9.4-19.65,11.91-37.56,2.51-17.9,3.77-43.63,3.77-77.18,0-28.84-.65-51.61-1.94-68.31-1.3-16.69-4.7-30.55-10.21-41.57-5.51-11.02-14.18-16.53-26.01-16.53s-20.46,4.82-25.89,14.46c-5.43,9.64-8.83,22.77-10.21,39.38-1.38,16.61-2.07,40.47-2.07,71.59s.89,53.8,2.67,71.47c1.78,17.67,5.43,31.24,10.94,40.72,5.51,9.48,13.61,14.22,24.31,14.22M1141.99,544.41c-29.52,0-53.06,8.4-69.98,24.96-16.43,16.07-27.9,38.49-34.12,66.62-5.96,26.96-8.98,60.86-8.98,100.75,0,37.23,2.55,69.4,7.58,95.63,5.25,27.39,16.21,50.41,32.57,68.42,17.04,18.76,42.15,28.28,74.63,28.28,28.58,0,51.61-8.5,68.46-25.26,16.3-16.21,27.8-38.8,34.18-67.13,6.12-27.23,9.23-60.77,9.23-99.69s-2.55-69.85-7.58-96.56c-5.27-27.96-16.35-51.03-32.95-68.59-17.2-18.19-41.77-27.41-73.04-27.41h0ZM1141.99,853.12c-7.31,0-12.26-2.92-16.07-9.48-4.8-8.26-8.06-20.67-9.7-36.89-1.74-17.23-2.63-40.96-2.63-70.51s.68-54.54,2.03-70.8c1.26-15.16,4.29-27.1,9.02-35.49,3.74-6.65,9.17-9.61,17.59-9.61s13.6,3.47,17.49,11.27c4.93,9.86,8.04,22.66,9.23,38.05,1.27,16.39,1.92,39.12,1.92,67.57,0,32.94-1.24,58.46-3.68,75.86-2.83,20.16-7.03,29.14-10.06,33.11-3.61,4.74-8.42,6.94-15.15,6.94h0Z"/>
    </g>
  </g>
</svg>