<?xml version="1.0" encoding="UTF-8"?>
<svg id="Layer_1" xmlns="http://www.w3.org/2000/svg" version="1.1" viewBox="0 0 1448 1448">
  <!-- Generator: Adobe Illustrator 30.1.0, SVG Export Plug-In . SVG Version: 2.1.1 Build 136)  -->
  <defs>
    <style>
      .st0 {
        fill: #fff;
      }

      .st1 {
        fill: #ffc200;
      }
    </style>
  </defs>
  <circle class="st0" cx="724" cy="724" r="721.5"/>
  <g>
    <path class="st1" d="M463.21,811.72c-2.79-7.85-10.27-13.12-18.6-13.12h-210.88c-8.33,0-15.81,5.27-18.6,13.12l-57.93,162.79c-1.53,4.31-.88,9.11,1.76,12.85,2.64,3.74,6.94,5.97,11.52,5.97h337.36c4.58,0,8.88-2.23,11.52-5.97,2.64-3.74,3.3-8.54,1.76-12.85l-57.93-162.79Z"/>
    <path class="st1" d="M848.04,811.72c-2.79-7.85-10.27-13.12-18.6-13.12h-210.88c-8.33,0-15.81,5.27-18.6,13.12l-57.93,162.79c-1.53,4.31-.88,9.11,1.76,12.85,2.64,3.74,6.94,5.97,11.52,5.97h337.36c4.58,0,8.88-2.23,11.52-5.97s3.3-8.54,1.76-12.85l-57.93-162.79Z"/>
    <path class="st1" d="M555.32,568.4h337.36c4.58,0,8.88-2.23,11.52-5.97,2.64-3.74,3.3-8.54,1.76-12.85l-57.93-162.79c-2.79-7.85-10.27-13.12-18.6-13.12h-210.88c-8.33,0-15.81,5.27-18.6,13.12l-57.93,162.79c-1.53,4.31-.88,9.12,1.76,12.85,2.64,3.74,6.94,5.97,11.52,5.97Z"/>
    <path class="st1" d="M1290.79,974.51l-57.93-162.79c-2.79-7.85-10.27-13.12-18.6-13.12h-210.88c-8.33,0-15.81,5.27-18.6,13.12l-57.93,162.79c-1.53,4.31-.87,9.11,1.76,12.85,2.64,3.74,6.94,5.97,11.52,5.97h337.36c4.57,0,8.88-2.23,11.52-5.97,2.64-3.74,3.3-8.54,1.76-12.85Z"/>
    <path class="st1" d="M362.91,780.87h337.36c4.58,0,8.88-2.23,11.52-5.97,2.64-3.74,3.3-8.54,1.76-12.85l-57.93-162.79c-2.79-7.85-10.27-13.12-18.6-13.12h-210.88c-8.33,0-15.81,5.27-18.6,13.12l-57.93,162.79c-1.53,4.31-.88,9.12,1.76,12.85,2.64,3.74,6.94,5.97,11.52,5.97Z"/>
    <path class="st1" d="M792.38,599.26l-57.93,162.79c-1.53,4.31-.87,9.12,1.76,12.85,2.64,3.74,6.94,5.97,11.52,5.97h337.36c4.58,0,8.88-2.23,11.52-5.97,2.64-3.74,3.3-8.54,1.76-12.85l-57.93-162.79c-2.79-7.85-10.27-13.12-18.6-13.12h-210.88c-8.33,0-15.81,5.27-18.6,13.12Z"/>
  </g>
</svg>